<svg width="309" height="301" viewBox="0 0 309 301" fill="none" xmlns="http://www.w3.org/2000/svg">
<path d="M0.467778 292.981C-2.77123 290.109 11.6202 290.321 18.7233 290.188C19.7461 291.625 20.499 291.651 22.3459 291.984C23.1982 294.177 3.70678 295.853 0.467778 292.981Z" fill="black"/>
<path d="M111.213 75.8784C110.554 78.2622 110.064 86.0079 112.65 92.3638" stroke="black" stroke-width="2" stroke-linecap="round"/>
<path d="M109.118 93.9219C115.256 91.7222 126.946 89.0304 126.946 96.6396V97.9602C126.946 98.8517 127.964 99.3568 128.668 98.8107C138.523 91.1757 158.574 75.8788 165.639 64.2998" stroke="black" stroke-width="2" stroke-linecap="round"/>
<path d="M136.321 35.0576C142.351 39.8052 151.71 50.0529 142.613 54.2217C142.08 54.4659 141.786 55.057 141.938 55.6207C143.727 62.2486 143.444 75.9347 129.559 85.2029C129.353 85.3406 129.194 85.5455 129.118 85.7811L126.388 94.3265" stroke="black" stroke-width="2" stroke-linecap="round"/>
<path d="M130.352 69.9907C130.138 70.9327 130.695 72.8796 134.631 73.1308" stroke="black" stroke-width="2" stroke-linecap="round"/>
<path d="M140.911 45.2629C140.911 47.327 140.287 49.1422 139.343 50.4102C138.399 51.6775 137.204 52.3281 136.005 52.3281C134.805 52.3281 133.61 51.6775 132.666 50.4102C131.722 49.1422 131.098 47.327 131.098 45.2629C131.098 43.1988 131.722 41.3836 132.666 40.1157C133.61 38.8483 134.805 38.1978 136.005 38.1978C137.204 38.1978 138.399 38.8483 139.343 40.1157C140.287 41.3836 140.911 43.1988 140.911 45.2629Z" stroke="black" stroke-width="2" stroke-linecap="round"/>
<path d="M118.145 51.5432L130.313 47.2256" stroke="black" stroke-width="2" stroke-linecap="round"/>
<path d="M127.565 43.3002C127.875 41.9921 129.016 38.9825 131.098 37.4126" stroke="black" stroke-width="2" stroke-linecap="round"/>
<path d="M136.593 46.4405C137.46 46.4405 138.163 45.9133 138.163 45.263C138.163 44.6126 137.46 44.0854 136.593 44.0854C135.726 44.0854 135.023 44.6126 135.023 45.263C135.023 45.9133 135.726 46.4405 136.593 46.4405Z" fill="black"/>
<path d="M131.254 175.183C130.531 167.467 129.953 150.44 133.423 144.06C136.893 137.68 140.227 128.554 142.572 124.861C150.457 120.309 169.25 102.844 181.339 69.4023" stroke="black" stroke-width="2" stroke-linecap="round"/>
<path d="M109.118 93.5415L63.979 146.53" stroke="black" stroke-width="2" stroke-linecap="round"/>
<path d="M63.979 146.693C67.3256 146.241 76.0251 146.46 84.0558 150.957C94.0944 156.577 104.723 166.462 131.098 175.183" stroke="black" stroke-width="2" stroke-linecap="round"/>
<path d="M131.098 175.183L122.07 181.463" stroke="black" stroke-width="2" stroke-linecap="round"/>
<path d="M63.9841 146.53C63.3726 148.426 62.7657 152.846 67.904 158.306" stroke="black" stroke-width="2" stroke-linecap="round"/>
<path d="M96.9499 108.064C89.6455 114.149 71.1234 126.985 55.4708 129.655C51.8188 131.159 45.5317 135.385 49.6013 140.253C53.671 145.121 56.3842 151.048 57.2321 153.403C57.8843 155.563 59.5078 158.573 63.4209 151.664" stroke="black" stroke-width="2" stroke-linecap="round"/>
<path d="M51.0264 142.212C47.9939 144.001 40.9225 147.417 36.8964 146.781C32.8703 146.146 30.1863 147.841 29.3475 148.768C28.8958 149.497 28.6119 150.993 31.0895 151.152C33.5671 151.311 36.5093 151.218 37.6706 151.152" stroke="black" stroke-width="2" stroke-linecap="round"/>
<path d="M40.821 148.493C39.4628 150.014 34.845 153.473 27.2391 155.134C25.7516 155.41 23.7467 157.001 26.4631 158.869C28.7914 160.322 35.233 158.994 38.4927 157.001" stroke="black" stroke-width="2" stroke-linecap="round"/>
<path d="M38.4572 156.735C35.9626 157.991 31.4723 161.335 33.468 164.665C34.1077 165.326 36.8069 165.378 42.4869 160.303L46.7085 156.735" stroke="black" stroke-width="2" stroke-linecap="round"/>
<path d="M46.9197 156.811L42.6094 160.412C41.3685 163.679 39.4746 171.614 44.5686 167.213C48.2912 163.412 47.5074 160.172 49.0749 159.211C50.6422 158.251 54.1688 154.545 55.7362 152.811" stroke="black" stroke-width="2" stroke-linecap="round"/>
<path d="M47.1046 150.455C46.5824 152.071 46.1647 155.825 48.671 157.913" stroke="black" stroke-width="2" stroke-linecap="round"/>
<path d="M94.5947 282.731C97.0638 282.076 102.041 278.766 102.196 270.759C102.353 262.752 105.64 248.975 107.264 243.087L123.248 172.436" stroke="black" stroke-width="2" stroke-linecap="round"/>
<path d="M129.351 59.4307C129.903 59.4307 130.351 58.9829 130.351 58.4307C130.351 57.8784 129.903 57.4307 129.351 57.4307C128.798 57.4307 128.351 57.8784 128.351 58.4307C128.351 58.9829 128.798 59.4307 129.351 59.4307Z" fill="black"/>
<path d="M132.098 62.1782C132.65 62.1782 133.098 61.7305 133.098 61.1782C133.098 60.6259 132.65 60.1782 132.098 60.1782C131.546 60.1782 131.098 60.6259 131.098 61.1782C131.098 61.7305 131.546 62.1782 132.098 62.1782Z" fill="black"/>
<path d="M126.603 62.9634C127.155 62.9634 127.603 62.5157 127.603 61.9634C127.603 61.4111 127.155 60.9634 126.603 60.9634C126.051 60.9634 125.603 61.4111 125.603 61.9634C125.603 62.5157 126.051 62.9634 126.603 62.9634Z" fill="black"/>
<path d="M68.0002 52.9833C77.5392 35.2533 91.7823 33.0241 97.712 34.1255C110.027 15.2676 127.033 9.04655 137.393 14.6845C145.681 19.1947 138.892 30.5613 134.461 35.681L130.161 29.46C127.189 35.2145 118.693 33.0888 114.522 31.7927C118.106 39.3099 123.827 58.7384 111.786 76.3131C99.7451 93.8878 84.6153 94.1985 76.9915 89.1441C69.9547 84.1544 58.4611 70.7139 68.0002 52.9833Z" fill="black"/>
<path d="M63.1938 285.086C64.4949 287.123 68.8284 290.966 75.7541 290.05" stroke="black" stroke-width="2" stroke-linecap="round"/>
<path d="M74.1023 147.708C71.6465 154.733 60.1402 169.173 49.8624 187.322C43.0105 198.705 26.6694 224.126 16.1201 234.742C14.698 236.758 13.3664 241.337 19.4168 243.523C24.0709 245.474 26.1652 250.002 26.7858 254.841C27.5614 260.891 37.4514 265.379 44.0447 260.891C49.3 257.313 64.411 231.545 75.827 216.984C78.7337 213.276 81.4007 210.295 83.6046 208.593" stroke="black" stroke-width="2" stroke-linecap="round"/>
<path d="M76.109 217.182L63.1938 285.086C69.7584 283.334 87.7911 280.027 98.9122 280.027" stroke="black" stroke-width="2" stroke-linecap="round"/>
<path d="M11.8275 279.474C1.12894 258.736 11.0464 244.935 16.4101 241.518C24.7248 244.133 24.9495 252.851 26.2979 256.992L23.1859 265.513C21.1036 269.178 22.3183 276.348 23.1859 279.474C26.7828 293.959 21.354 295.351 18.6899 291.472L11.8275 279.474Z" fill="black"/>
<path d="M68.8698 298.491C65.2661 295.637 72.3936 294.53 79.626 294.113C82.1456 296.366 98.881 297.135 99.6975 297.657C91.9983 300.159 72.028 300.991 68.8698 298.491Z" fill="black"/>
<path d="M105.067 297.268C77.7439 301.015 72.0732 290.207 72.6532 283.89C77.3523 281.927 90.274 281.214 96.3655 280.768C94.6249 284.871 96.8004 284.336 98.3232 285.451C100.282 286.788 105.72 288.424 108.766 288.572C122.471 289.241 111.739 296.302 105.067 297.268Z" fill="black"/>
<path d="M169.432 29.7494C170.683 29.0298 173.265 28.7681 173.579 33.4782" stroke="black" stroke-width="2" stroke-linecap="round"/>
<path d="M166.906 42.3095C167.037 40.4781 166.906 36.3042 165.336 34.2632C163.374 31.7118 162.981 26.8055 166.906 27.198C168.152 27.3226 168.945 28.3578 169.432 29.7493C170.172 31.8645 170.204 34.8031 170.047 36.6182" stroke="black" stroke-width="2" stroke-linecap="round"/>
<path d="M164.439 47.4124C164.28 45.6461 163.609 41.564 162.196 39.366C160.43 36.6185 160.234 29.5533 163.962 30.3383" stroke="black" stroke-width="2" stroke-linecap="round"/>
<path d="M166.906 60.7575C165.925 60.7575 163.845 59.8155 163.374 56.0474C162.903 52.2793 161.215 49.8984 160.43 49.1785C159.972 48.0665 159.488 45.7637 161.215 45.4497C162.232 45.2648 163.435 46.2504 164.439 47.4122L166.121 49.7673" stroke="black" stroke-width="2" stroke-linecap="round"/>
<path d="M175.934 43.2909C176.392 42.4407 176.837 40.2686 174.952 38.3846C172.597 36.0296 173.186 33.8708 174.56 33.282C175.934 32.6932 177.896 33.0858 179.859 38.9734C181.821 44.0759 184.726 57.0287 181.429 68.019" stroke="black" stroke-width="2" stroke-linecap="round"/>
<path d="M184.899 12.5824L187.979 6.98389" stroke="black" stroke-width="2" stroke-linecap="round"/>
<path d="M158.271 15.2266L163.766 18.7591" stroke="black" stroke-width="2" stroke-linecap="round"/>
<path d="M168.242 1L173.617 13.3605" stroke="black" stroke-width="2" stroke-linecap="round"/>
<path d="M187.27 29.5615C187.27 25.4407 188.229 18.5619 193.213 24.7917C196.28 29.2694 197.431 38.1859 195.13 42.7023" stroke="black" stroke-width="2" stroke-linecap="round"/>
<path d="M177.109 33.3574C176.47 31.0862 176.151 26.8551 179.985 28.101L184.202 36.667" stroke="black" stroke-width="2" stroke-linecap="round"/>
<path d="M184.202 36.6671L179.985 28.1011C179.665 25.5702 181.327 21.4819 185.353 24.7915L187.27 29.5612L189.187 34.3309" stroke="black" stroke-width="2" stroke-linecap="round"/>
<path d="M189.279 48.7861C188.232 51.076 187.12 56.2831 191.045 58.7951" stroke="black" stroke-width="2" stroke-linecap="round"/>
<path d="M194.186 45.4497C195.101 42.8333 197.875 37.639 201.643 37.796C205.411 37.953 202.428 42.8984 201.643 44.6647L196.148 55.4587C194.971 58.4025 193.204 63.7014 197.326 69.7853C201.447 75.2804 215.659 89.4107 230.967 91.7658" stroke="black" stroke-width="2" stroke-linecap="round"/>
<path d="M228.138 173.8C229.315 177.987 233.633 187.695 241.483 193.033M215.97 166.931L231.474 171.445L215.97 166.931ZM230.689 179.295C232.39 173.735 234.575 159.945 229.708 149.268C223.624 135.923 219.895 118.849 222.839 107.466C225.194 98.36 233.763 96.9991 237.754 97.4572C244.034 98.1778 254.867 105.7 254.239 126.11C253.454 151.623 247.567 173.408 239.128 190.286L230.689 179.295Z" stroke="black" stroke-width="2" stroke-linecap="round"/>
<path d="M224.409 188.519C224.409 178.51 224.343 171.445 223.231 168.697C238.304 174.349 256.595 172.884 263.856 171.445C264.052 171.903 265.662 176.273 270.529 190.089C276.613 207.359 272.295 265.058 270.529 271.535C268.762 278.011 264.052 278.207 257.183 277.422C251.688 276.794 244.427 261.722 241.483 254.264C227.745 228.555 224.409 200.263 224.409 188.519Z" fill="black"/>
<path d="M277.699 136.329C279.646 141.105 284.05 153.246 286.091 163.608C280.464 167.599 264.641 175.174 245.8 172.819L215.97 166.931C214.792 157.053 214.654 131.894 222.504 109.442C222.504 107.414 224.566 101.735 229.119 99.2231" stroke="black" stroke-width="2" stroke-linecap="round"/>
<path d="M276.024 153.39C275.94 152.13 278.265 142.962 277.699 136.329C277.384 132.631 276.98 128.016 276.474 122.395C275.061 106.695 269.474 94.6581 266.858 90.6019C264.241 86.5461 258.05 84.1118 253.144 85.8781" stroke="black" stroke-width="2" stroke-linecap="round"/>
<path d="M272.256 258.565C273.948 221.755 266.445 186.976 262.286 173.408C272.775 171.992 281.039 167.458 284.07 165.95C287.115 177.434 291.572 206.916 293.405 220.418C297.973 235.205 297 256.467 295.943 265.25C296.62 270.599 292.277 272.722 290.021 273.116C278.009 277.048 273.173 265.054 272.256 258.565Z" fill="black"/>
<path d="M176.719 32.6934C180.055 38.0577 185.001 51.0627 181.233 69.5891C181.56 73.5797 187.383 86.7755 191.83 92.7471C198.699 101.971 213.026 112.373 221.857 115.316" stroke="black" stroke-width="2" stroke-linecap="round"/>
<path d="M237.61 88.7099C235.013 87.112 215.483 88.6522 211.686 64.0847C205.185 64.1608 201.65 58.8357 206.61 56.5567C211.898 53.83 211.501 48.8239 210.543 45.8742C209.02 42.0061 208.928 37.9447 209.256 37.0952" stroke="black" stroke-width="2" stroke-linecap="round"/>
<path d="M217.079 55.254C216.15 55.2649 215.384 54.1444 215.368 52.7513C215.352 51.3582 216.091 50.22 217.02 50.2092C217.949 50.1983 218.715 51.3188 218.731 52.7119C218.748 54.105 218.008 55.2431 217.079 55.254Z" fill="black"/>
<path d="M221.043 47.1038C219.958 45.9447 217.153 44.2487 214.612 46.7399" stroke="black" stroke-width="2" stroke-linecap="round"/>
<path d="M228.41 69.6797C226.417 72.7471 224.228 73.6181 219.978 71.6387" stroke="black" stroke-width="2" stroke-linecap="round"/>
<path d="M244.729 48.1792C245.191 49.1934 245.578 51.4959 243.431 52.5918" stroke="black" stroke-width="2" stroke-linecap="round"/>
<path d="M267.61 37.764C270.139 51.602 262.225 62.0188 256.488 70.0268C250.36 66.7164 240.318 58.8442 244.169 57.9944C248.218 57.1015 252.488 46.059 248.556 42.6811C243.944 38.7177 239.786 44.7143 238.994 49.2611L235.279 42.8365C236.329 38.3428 236.741 30.4603 229.985 34.8793C223.229 39.2981 213.318 38.1407 209.207 37.0095C201.102 31.208 188.509 17.6757 202.981 9.95861C215.017 3.54014 230.679 11.6548 240.239 18.9463C246.713 17.2374 264.161 18.8964 267.61 37.764Z" fill="black"/>
<path d="M256.038 69.1001C253.112 72.6225 251.658 75.5475 251.839 81.6066" stroke="black" stroke-width="2" stroke-linecap="round"/>
<path d="M274.206 300.872C249.871 301.854 238.292 296.971 238.292 293.611C238.292 292.237 237.507 290.863 243.002 288.901C240.647 292.106 241.51 298.203 263.805 296.947C267.403 297.143 275.502 296.201 279.113 290.863H280.879C298.542 286.349 308.943 290.055 308.943 293.415C308.943 296.775 294.42 300.057 274.206 300.872Z" fill="black"/>
<path d="M278.767 290.777C291.912 292.033 293.57 281.488 292.756 276.058" stroke="black" stroke-width="2" stroke-linecap="round"/>
<path d="M261.355 281.161C261.355 282.011 261.158 283.869 260.373 284.497C259.392 285.282 241.729 283.319 242.122 292.151C241.925 293.394 243.888 295.291 248.598 295.88C255.223 296.708 274.213 299.125 278.767 290.777C279.032 290.291 279.248 289.768 279.41 289.207L281.176 281.749" stroke="black" stroke-width="2" stroke-linecap="round"/>
</svg>
