<svg width="294" height="294" viewBox="0 0 294 294" fill="none" xmlns="http://www.w3.org/2000/svg">
<g clip-path="url(#clip0_308_123)">
<rect width="293.18" height="293.18" rx="146.59" fill="white"/>
<g filter="url(#filter0_d_308_123)">
<path d="M245.313 -0.191497C192.353 -0.456294 108.472 -0.810036 44.6528 -1.06804C20.4547 -1.16586 1.33482 16.8541 1.0019 41.0502C0.2949 92.4342 0.286028 179.243 0.469015 246.807C0.540672 273.265 22.0413 294.612 48.4994 294.532C100.294 294.377 180.212 294.116 242.761 293.909C269.85 293.819 291.872 271.397 291.871 244.308C291.871 192.056 292.348 111.154 292.808 48.0021C293 21.5204 271.795 -0.0590897 245.313 -0.191497Z" fill="url(#paint0_linear_308_123)" shape-rendering="crispEdges"/>
</g>
</g>
<defs>
<filter id="filter0_d_308_123" x="-5.63086" y="-1.06836" width="302.439" height="305.601" filterUnits="userSpaceOnUse" color-interpolation-filters="sRGB">
<feFlood flood-opacity="0" result="BackgroundImageFix"/>
<feColorMatrix in="SourceAlpha" type="matrix" values="0 0 0 0 0 0 0 0 0 0 0 0 0 0 0 0 0 0 127 0" result="hardAlpha"/>
<feOffset dx="-1" dy="5"/>
<feGaussianBlur stdDeviation="2.5"/>
<feComposite in2="hardAlpha" operator="out"/>
<feColorMatrix type="matrix" values="0 0 0 0 0 0 0 0 0 0 0 0 0 0 0 0 0 0 0.3 0"/>
<feBlend mode="normal" in2="BackgroundImageFix" result="effect1_dropShadow_308_123"/>
<feBlend mode="normal" in="SourceGraphic" in2="effect1_dropShadow_308_123" result="shape"/>
</filter>
<linearGradient id="paint0_linear_308_123" x1="108.499" y1="143.046" x2="194.369" y2="367.591" gradientUnits="userSpaceOnUse">
<stop stop-color="#FFBDF2"/>
<stop offset="1" stop-color="#FBD767" stop-opacity="0.5"/>
</linearGradient>
<clipPath id="clip0_308_123">
<rect width="293.18" height="293.18" rx="146.59" fill="white"/>
</clipPath>
</defs>
</svg>
